<svg version="1.1" id="Layer_1" xmlns="http://www.w3.org/2000/svg" xmlns:xlink="http://www.w3.org/1999/xlink" x="0px" y="0px"
	 width="100%" viewBox="0 0 900 500" enable-background="new 0 0 900 500" xml:space="preserve">
<path fill="#FFFFFF" opacity="1.000000" stroke="none" 
	d="
M581.000000,501.000000 
	C387.333344,501.000000 194.166672,501.000000 1.000000,501.000000 
	C1.000000,334.333344 1.000000,167.666672 1.000000,1.000000 
	C301.000000,1.000000 601.000000,1.000000 901.000000,1.000000 
	C901.000000,167.666672 901.000000,334.333344 901.000000,501.000000 
	C794.500000,501.000000 688.000000,501.000000 581.000000,501.000000 
M600.499939,440.707245 
	C694.569763,440.707245 788.639648,440.707245 882.747498,440.707245 
	C882.747498,313.908325 882.747498,187.950043 882.747498,61.881943 
	C595.045532,61.881943 307.526825,61.881943 19.932205,61.881943 
	C19.932205,188.235916 19.932205,314.183777 19.932205,440.707184 
	C213.273483,440.707184 406.386688,440.707184 600.499939,440.707245 
z"/>
<path fill="#014268" opacity="1.000000" stroke="none" 
	d="
M599.999878,440.707214 
	C406.386688,440.707184 213.273483,440.707184 19.932205,440.707184 
	C19.932205,314.183777 19.932205,188.235916 19.932205,61.881943 
	C307.526825,61.881943 595.045532,61.881943 882.747498,61.881943 
	C882.747498,187.950043 882.747498,313.908325 882.747498,440.707245 
	C788.639648,440.707245 694.569763,440.707245 599.999878,440.707214 
M765.467163,353.508331 
	C769.985229,348.342499 774.503296,343.176697 779.566345,337.629059 
	C787.649231,328.202362 795.791199,318.825409 803.794739,309.331848 
	C809.346436,302.746613 814.770447,296.050812 820.132629,289.309845 
	C823.925842,284.541168 824.150940,279.877502 820.778687,275.295959 
	C818.841370,273.243256 816.904114,271.190521 814.270203,268.966736 
	C811.501282,267.762512 808.732300,266.558258 805.190308,265.146240 
	C803.118713,264.841980 801.047058,264.537689 798.052795,264.084900 
	C776.833984,261.863129 758.900757,268.941986 743.968506,283.749969 
	C734.484497,293.154999 727.601196,304.094940 726.341797,318.598572 
	C726.236206,321.397614 726.130615,324.196655 725.934448,327.896393 
	C726.248108,331.284729 726.561768,334.673035 726.934082,338.864166 
	C727.670532,341.899963 728.406982,344.935791 729.331421,348.629547 
	C730.907898,351.415161 732.484375,354.200775 734.301575,357.603760 
	C737.200928,360.072296 740.100281,362.540833 743.457642,365.617523 
	C745.184875,366.086975 746.891296,366.852997 748.642883,366.976288 
	C757.974976,367.633179 760.722961,359.792389 765.467163,353.508331 
M630.288086,354.600525 
	C632.744873,357.454437 635.059204,360.447784 637.687378,363.133972 
	C643.631287,369.209015 649.606750,369.099670 656.619080,362.714996 
	C658.766113,359.820587 660.913147,356.926178 663.614624,353.628693 
	C664.750549,350.754181 665.886475,347.879639 667.347107,344.333435 
	C667.942200,341.566162 668.537292,338.798920 669.450439,335.282623 
	C669.592896,332.182709 669.735291,329.082764 669.890564,325.185272 
	C669.559631,322.786774 669.228638,320.388245 669.020264,317.161804 
	C667.820435,306.100464 663.291138,296.531982 656.025757,288.191864 
	C640.399902,270.254303 621.014954,261.534882 596.284546,264.062225 
	C594.470215,264.584595 592.655945,265.106995 590.072205,265.719269 
	C587.364197,266.771698 584.656189,267.824127 581.275330,269.009155 
	C579.169434,270.988281 577.063538,272.967377 574.369141,275.438232 
	C572.017212,280.296448 572.042725,284.903503 575.644470,289.244080 
	C582.470520,297.470306 589.245056,305.739349 596.292053,314.606964 
	C597.892212,316.491760 599.483826,318.383820 601.093872,320.260132 
	C610.739990,331.501892 620.390381,342.740021 630.288086,354.600525 
M666.332214,142.185883 
	C622.331604,165.799377 618.578247,224.281357 653.346130,253.069214 
	C660.484985,258.980255 668.305298,263.717987 677.918335,264.030273 
	C683.891479,264.224335 685.949707,262.036163 685.019836,256.106415 
	C684.467590,252.584854 682.859924,249.179214 681.407837,245.861008 
	C679.616272,241.767044 676.913574,237.995468 675.621460,233.773407 
	C671.610840,220.668625 677.083374,209.525757 689.654114,204.149673 
	C699.341492,200.006729 712.748901,204.571945 718.346375,214.211273 
	C722.998840,222.223099 722.206299,230.444000 718.302002,238.516220 
	C716.134216,242.998199 713.553711,247.294434 711.607910,251.865387 
	C710.182617,255.213455 708.708862,259.679474 712.126343,261.993256 
	C714.751160,263.770416 718.950256,263.272217 722.463928,263.647400 
	C723.227417,263.728943 724.064270,263.249298 724.849976,262.978058 
	C735.866272,259.174896 744.814148,252.415604 751.850098,243.273544 
	C763.262146,228.445450 767.581421,211.510361 764.952698,193.081314 
	C761.539307,169.151611 748.828308,151.715698 726.413818,140.661087 
	C718.269287,138.539642 710.231445,135.411331 701.955078,134.534317 
	C689.741394,133.240082 677.845581,135.750122 666.332214,142.185883 
M342.590912,249.914764 
	C336.567230,239.208420 330.542603,228.502625 324.520172,217.795593 
	C320.364624,210.407593 314.135040,205.179016 305.838776,204.220596 
	C295.147614,202.985535 284.298492,202.973373 273.510986,202.762604 
	C265.127411,202.598801 263.028137,204.926346 263.011993,213.526764 
	C262.977661,231.855881 263.001404,250.185104 263.001373,268.514282 
	C263.001373,270.973328 263.001373,273.432373 263.001373,276.293579 
	C275.580475,276.293579 287.701263,276.235260 299.820068,276.364288 
	C301.410156,276.381195 303.630127,276.882568 304.447632,277.984009 
	C306.437714,280.665253 307.774933,283.831116 309.724304,287.450134 
	C293.706512,287.450134 278.608643,287.450134 263.148621,287.450134 
	C263.148621,309.942688 263.019958,332.063538 263.254028,354.180511 
	C263.302551,358.762878 266.406647,361.194946 271.270599,361.154510 
	C281.267242,361.071442 291.265289,361.167236 301.262695,361.157501 
	C309.702332,361.149292 311.986237,358.903564 311.993713,350.589172 
	C312.009766,332.759888 311.992645,314.930573 312.010559,297.101288 
	C312.011932,295.750214 312.183258,294.399292 312.341888,292.077759 
	C322.544891,310.256531 332.286499,327.423279 341.830322,344.699249 
	C346.463776,353.086731 353.099915,358.994415 362.651611,359.958008 
	C373.042145,361.006226 383.555634,360.943329 394.019684,361.120270 
	C401.880798,361.253235 403.980927,358.977844 403.990723,350.961151 
	C404.014679,331.298950 404.003876,311.636719 403.987549,291.974487 
	C403.986359,290.545685 403.828125,289.117004 403.733093,287.523102 
	C392.650696,287.523102 381.991150,287.523132 371.331604,287.523102 
	C363.030701,287.523102 360.170685,285.057556 358.434235,276.059113 
	C373.581177,276.059113 388.651123,276.059113 403.960236,276.059113 
	C403.960236,253.840881 404.028931,232.035873 403.906586,210.231934 
	C403.879700,205.441208 400.904633,202.814026 395.820618,202.749405 
	C385.991089,202.624435 376.158813,202.688705 366.327789,202.712372 
	C357.100220,202.734604 355.122345,204.687531 355.113922,213.785049 
	C355.097717,231.281067 355.115479,248.777130 355.097015,266.273163 
	C355.095551,267.641174 354.921051,269.009033 354.750305,271.492218 
	C350.408661,263.814545 346.665375,257.195038 342.590912,249.914764 
M426.264191,320.866882 
	C420.472931,331.099487 419.333069,342.246582 419.949249,353.694580 
	C420.209167,358.523956 422.981720,361.033020 428.193909,361.039795 
	C467.838501,361.091492 507.483276,361.098267 547.127808,361.036163 
	C553.694214,361.025879 555.975281,358.565521 556.048523,351.849121 
	C556.133850,344.021057 556.102478,336.191223 556.062256,328.362427 
	C556.019775,320.083069 553.963745,317.963470 545.802795,317.941925 
	C529.312073,317.898438 512.821167,317.934723 496.330292,317.918060 
	C494.940216,317.916656 493.550293,317.764648 491.479279,317.642426 
	C499.268372,307.378265 506.608856,297.705231 514.503235,287.302277 
	C493.442200,287.302277 473.349670,287.272583 453.257874,287.383270 
	C452.164429,287.389282 450.744415,288.314636 450.038544,289.240570 
	C442.192596,299.532928 434.457672,309.909912 426.264191,320.866882 
M519.500061,202.705566 
	C490.173187,202.705688 460.846313,202.679886 431.519501,202.722031 
	C422.945862,202.734360 420.984314,204.768448 420.938202,213.366074 
	C420.897095,221.030838 420.890381,228.696243 420.941010,236.360886 
	C420.987885,243.460953 423.461731,245.878174 430.622131,245.886078 
	C446.451996,245.903534 462.281830,245.883987 478.111664,245.905014 
	C479.460754,245.906815 480.809570,246.098801 482.683868,246.242798 
	C474.947906,256.446350 467.712097,265.990234 459.901428,276.292358 
	C480.961914,276.292358 500.776367,276.361328 520.588074,276.161713 
	C522.176453,276.145721 524.147949,274.600128 525.255920,273.216461 
	C530.440979,266.741333 535.028198,259.759552 540.492920,253.542343 
	C550.916687,241.683258 556.123535,228.311890 554.770752,212.403763 
	C554.166504,205.298859 552.112488,202.809555 544.994507,202.728104 
	C536.830688,202.634674 528.664978,202.705841 519.500061,202.705566 
M206.485535,202.706345 
	C205.152237,202.706360 203.818237,202.735123 202.485764,202.702042 
	C182.984207,202.217667 168.242661,210.369934 158.050003,226.983978 
	C151.189880,238.165939 144.165237,249.246948 137.215958,260.374207 
	C134.041565,265.457092 130.871445,270.542633 127.482262,275.974976 
	C164.158539,275.974976 199.920334,275.974976 235.836624,275.974976 
	C235.836624,275.002167 235.934906,274.330902 235.822342,273.697083 
	C232.487274,254.920105 229.162262,236.141266 225.768524,217.374847 
	C223.190567,203.119492 222.625351,202.706665 206.485535,202.706345 
M81.708290,360.127045 
	C83.310715,360.442444 84.911423,361.020721 86.515846,361.031250 
	C98.343719,361.108826 110.174202,360.947113 122.000000,361.122131 
	C128.681503,361.220978 133.270813,358.380585 136.745575,352.785797 
	C146.909943,336.419952 157.281204,320.182709 167.540115,303.875397 
	C170.841187,298.628082 174.045074,293.319580 177.753754,287.290771 
	C163.797668,287.290771 150.854324,287.253693 137.911362,287.307587 
	C132.103546,287.331757 125.352547,285.751373 120.761436,288.177063 
	C116.394562,290.484344 114.207878,297.015015 111.196800,301.773651 
	C101.164818,317.627991 91.179642,333.511993 81.209160,349.405121 
	C79.105469,352.758423 77.310173,356.202362 81.708290,360.127045 
M244.423477,323.092377 
	C242.579346,312.473877 240.661392,301.867310 238.939987,291.228973 
	C238.476227,288.362915 237.245743,287.423553 234.346893,287.461334 
	C222.862198,287.611053 211.374420,287.522675 199.887772,287.522583 
	C194.941544,287.522522 189.995316,287.522552 184.885193,287.522552 
	C184.885193,288.714264 184.790710,289.361694 184.898849,289.973297 
	C188.649109,311.183228 192.344513,332.403320 196.236084,353.587402 
	C197.235168,359.026062 200.248291,361.344940 206.124130,361.420441 
	C217.941727,361.572235 229.764374,361.590515 241.581497,361.422546 
	C248.341080,361.326477 250.703995,358.053467 249.504364,351.316803 
	C247.878540,342.186981 246.292007,333.050171 244.423477,323.092377 
z"/>
<path fill="#FEFFFF" opacity="1.000000" stroke="none" 
	d="
M342.756531,250.245148 
	C346.665375,257.195038 350.408661,263.814545 354.750305,271.492218 
	C354.921051,269.009033 355.095551,267.641174 355.097015,266.273163 
	C355.115479,248.777130 355.097717,231.281067 355.113922,213.785049 
	C355.122345,204.687531 357.100220,202.734604 366.327789,202.712372 
	C376.158813,202.688705 385.991089,202.624435 395.820618,202.749405 
	C400.904633,202.814026 403.879700,205.441208 403.906586,210.231934 
	C404.028931,232.035873 403.960236,253.840881 403.960236,276.059113 
	C388.651123,276.059113 373.581177,276.059113 358.434235,276.059113 
	C360.170685,285.057556 363.030701,287.523102 371.331604,287.523102 
	C381.991150,287.523132 392.650696,287.523102 403.733093,287.523102 
	C403.828125,289.117004 403.986359,290.545685 403.987549,291.974487 
	C404.003876,311.636719 404.014679,331.298950 403.990723,350.961151 
	C403.980927,358.977844 401.880798,361.253235 394.019684,361.120270 
	C383.555634,360.943329 373.042145,361.006226 362.651611,359.958008 
	C353.099915,358.994415 346.463776,353.086731 341.830322,344.699249 
	C332.286499,327.423279 322.544891,310.256531 312.341888,292.077759 
	C312.183258,294.399292 312.011932,295.750214 312.010559,297.101288 
	C311.992645,314.930573 312.009766,332.759888 311.993713,350.589172 
	C311.986237,358.903564 309.702332,361.149292 301.262695,361.157501 
	C291.265289,361.167236 281.267242,361.071442 271.270599,361.154510 
	C266.406647,361.194946 263.302551,358.762878 263.254028,354.180511 
	C263.019958,332.063538 263.148621,309.942688 263.148621,287.450134 
	C278.608643,287.450134 293.706512,287.450134 309.724304,287.450134 
	C307.774933,283.831116 306.437714,280.665253 304.447632,277.984009 
	C303.630127,276.882568 301.410156,276.381195 299.820068,276.364288 
	C287.701263,276.235260 275.580475,276.293579 263.001373,276.293579 
	C263.001373,273.432373 263.001373,270.973328 263.001373,268.514282 
	C263.001404,250.185104 262.977661,231.855881 263.011993,213.526764 
	C263.028137,204.926346 265.127411,202.598801 273.510986,202.762604 
	C284.298492,202.973373 295.147614,202.985535 305.838776,204.220596 
	C314.135040,205.179016 320.364624,210.407593 324.520172,217.795593 
	C330.542603,228.502625 336.567230,239.208420 342.756531,250.245148 
z"/>
<path fill="#009DE0" opacity="1.000000" stroke="none" 
	d="
M726.993530,141.087769 
	C748.828308,151.715698 761.539307,169.151611 764.952698,193.081314 
	C767.581421,211.510361 763.262146,228.445450 751.850098,243.273544 
	C744.814148,252.415604 735.866272,259.174896 724.849976,262.978058 
	C724.064270,263.249298 723.227417,263.728943 722.463928,263.647400 
	C718.950256,263.272217 714.751160,263.770416 712.126343,261.993256 
	C708.708862,259.679474 710.182617,255.213455 711.607910,251.865387 
	C713.553711,247.294434 716.134216,242.998199 718.302002,238.516220 
	C722.206299,230.444000 722.998840,222.223099 718.346375,214.211273 
	C712.748901,204.571945 699.341492,200.006729 689.654114,204.149673 
	C677.083374,209.525757 671.610840,220.668625 675.621460,233.773407 
	C676.913574,237.995468 679.616272,241.767044 681.407837,245.861008 
	C682.859924,249.179214 684.467590,252.584854 685.019836,256.106415 
	C685.949707,262.036163 683.891479,264.224335 677.918335,264.030273 
	C668.305298,263.717987 660.484985,258.980255 653.346130,253.069214 
	C618.578247,224.281357 622.331604,165.799377 666.668701,142.507248 
	C669.061829,147.995285 670.462708,153.559555 673.305786,158.249481 
	C680.134521,169.513855 692.395996,177.963623 707.737244,171.841782 
	C716.937378,168.170517 727.479553,153.623795 726.993530,141.087769 
z"/>
<path fill="#FEFEFE" opacity="1.000000" stroke="none" 
	d="
M426.478455,320.565430 
	C434.457672,309.909912 442.192596,299.532928 450.038544,289.240570 
	C450.744415,288.314636 452.164429,287.389282 453.257874,287.383270 
	C473.349670,287.272583 493.442200,287.302277 514.503235,287.302277 
	C506.608856,297.705231 499.268372,307.378265 491.479279,317.642426 
	C493.550293,317.764648 494.940216,317.916656 496.330292,317.918060 
	C512.821167,317.934723 529.312073,317.898438 545.802795,317.941925 
	C553.963745,317.963470 556.019775,320.083069 556.062256,328.362427 
	C556.102478,336.191223 556.133850,344.021057 556.048523,351.849121 
	C555.975281,358.565521 553.694214,361.025879 547.127808,361.036163 
	C507.483276,361.098267 467.838501,361.091492 428.193909,361.039795 
	C422.981720,361.033020 420.209167,358.523956 419.949249,353.694580 
	C419.333069,342.246582 420.472931,331.099487 426.478455,320.565430 
z"/>
<path fill="#FEFEFE" opacity="1.000000" stroke="none" 
	d="
M520.000122,202.705536 
	C528.664978,202.705841 536.830688,202.634674 544.994507,202.728104 
	C552.112488,202.809555 554.166504,205.298859 554.770752,212.403763 
	C556.123535,228.311890 550.916687,241.683258 540.492920,253.542343 
	C535.028198,259.759552 530.440979,266.741333 525.255920,273.216461 
	C524.147949,274.600128 522.176453,276.145721 520.588074,276.161713 
	C500.776367,276.361328 480.961914,276.292358 459.901428,276.292358 
	C467.712097,265.990234 474.947906,256.446350 482.683868,246.242798 
	C480.809570,246.098801 479.460754,245.906815 478.111664,245.905014 
	C462.281830,245.883987 446.451996,245.903534 430.622131,245.886078 
	C423.461731,245.878174 420.987885,243.460953 420.941010,236.360886 
	C420.890381,228.696243 420.897095,221.030838 420.938202,213.366074 
	C420.984314,204.768448 422.945862,202.734360 431.519501,202.722031 
	C460.846313,202.679886 490.173187,202.705688 520.000122,202.705536 
z"/>
<path fill="#FEFFFF" opacity="1.000000" stroke="none" 
	d="
M206.979355,202.706299 
	C222.625351,202.706665 223.190567,203.119492 225.768524,217.374847 
	C229.162262,236.141266 232.487274,254.920105 235.822342,273.697083 
	C235.934906,274.330902 235.836624,275.002167 235.836624,275.974976 
	C199.920334,275.974976 164.158539,275.974976 127.482262,275.974976 
	C130.871445,270.542633 134.041565,265.457092 137.215958,260.374207 
	C144.165237,249.246948 151.189880,238.165939 158.050003,226.983978 
	C168.242661,210.369934 182.984207,202.217667 202.485764,202.702042 
	C203.818237,202.735123 205.152237,202.706360 206.979355,202.706299 
z"/>
<path fill="#FDFDFE" opacity="1.000000" stroke="none" 
	d="
M81.338882,359.927795 
	C77.310173,356.202362 79.105469,352.758423 81.209160,349.405121 
	C91.179642,333.511993 101.164818,317.627991 111.196800,301.773651 
	C114.207878,297.015015 116.394562,290.484344 120.761436,288.177063 
	C125.352547,285.751373 132.103546,287.331757 137.911362,287.307587 
	C150.854324,287.253693 163.797668,287.290771 177.753754,287.290771 
	C174.045074,293.319580 170.841187,298.628082 167.540115,303.875397 
	C157.281204,320.182709 146.909943,336.419952 136.745575,352.785797 
	C133.270813,358.380585 128.681503,361.220978 122.000000,361.122131 
	C110.174202,360.947113 98.343719,361.108826 86.515846,361.031250 
	C84.911423,361.020721 83.310715,360.442444 81.338882,359.927795 
z"/>
<path fill="#FEFEFF" opacity="1.000000" stroke="none" 
	d="
M244.556061,323.504364 
	C246.292007,333.050171 247.878540,342.186981 249.504364,351.316803 
	C250.703995,358.053467 248.341080,361.326477 241.581497,361.422546 
	C229.764374,361.590515 217.941727,361.572235 206.124130,361.420441 
	C200.248291,361.344940 197.235168,359.026062 196.236084,353.587402 
	C192.344513,332.403320 188.649109,311.183228 184.898849,289.973297 
	C184.790710,289.361694 184.885193,288.714264 184.885193,287.522552 
	C189.995316,287.522552 194.941544,287.522522 199.887772,287.522583 
	C211.374420,287.522675 222.862198,287.611053 234.346893,287.461334 
	C237.245743,287.423553 238.476227,288.362915 238.939987,291.228973 
	C240.661392,301.867310 242.579346,312.473877 244.556061,323.504364 
z"/>
<path fill="#00A3E2" opacity="1.000000" stroke="none" 
	d="
M726.703674,140.874420 
	C727.479553,153.623795 716.937378,168.170517 707.737244,171.841782 
	C692.395996,177.963623 680.134521,169.513855 673.305786,158.249481 
	C670.462708,153.559555 669.061829,147.995285 667.007812,142.434814 
	C677.845581,135.750122 689.741394,133.240082 701.955078,134.534317 
	C710.231445,135.411331 718.269287,138.539642 726.703674,140.874420 
z"/>
<path fill="#0097DD" opacity="1.000000" stroke="none" 
	d="
M726.841492,317.978729 
	C727.601196,304.094940 734.484497,293.154999 743.968506,283.749969 
	C758.900757,268.941986 776.833984,261.863129 798.514709,264.505981 
	C792.568909,272.806335 786.691040,281.209595 779.583923,288.397339 
	C774.007019,294.037689 767.000000,298.301453 760.467529,302.950897 
	C750.283691,310.199188 739.409729,316.013611 726.841492,317.978729 
z"/>
<path fill="#0097DD" opacity="1.000000" stroke="none" 
	d="
M597.016113,264.132965 
	C621.014954,261.534882 640.399902,270.254303 656.025757,288.191864 
	C663.291138,296.531982 667.820435,306.100464 668.576782,317.571594 
	C642.859802,311.249573 623.217468,295.844818 605.863464,277.118866 
	C602.342834,273.319885 599.936279,268.488434 597.016113,264.132965 
z"/>
<path fill="#0087C8" opacity="1.000000" stroke="none" 
	d="
M805.963379,265.354004 
	C808.732300,266.558258 811.501282,267.762512 814.585571,269.395325 
	C808.203308,278.780029 802.277649,288.474792 794.602844,296.496002 
	C785.977966,305.510193 776.365784,313.871796 766.101562,320.948639 
	C754.302368,329.083801 741.288635,335.431335 726.875427,338.061371 
	C726.561768,334.673035 726.248108,331.284729 726.377930,327.446747 
	C737.639709,323.949951 747.822998,319.731049 757.618958,313.945190 
	C774.128784,304.193878 787.827393,291.592468 799.517212,276.648499 
	C802.159912,273.270081 803.840088,269.138763 805.963379,265.354004 
z"/>
<path fill="#007DBB" opacity="1.000000" stroke="none" 
	d="
M726.904785,338.462769 
	C741.288635,335.431335 754.302368,329.083801 766.101562,320.948639 
	C776.365784,313.871796 785.977966,305.510193 794.602844,296.496002 
	C802.277649,288.474792 808.203308,278.780029 814.933899,269.480835 
	C816.904114,271.190521 818.841370,273.243256 820.774231,275.926453 
	C820.078186,277.886597 819.534424,279.321594 818.672974,280.530182 
	C804.479858,300.442291 787.979858,318.062561 767.164673,331.201996 
	C755.353821,338.657471 742.920288,344.884766 729.143433,347.971619 
	C728.406982,344.935791 727.670532,341.899963 726.904785,338.462769 
z"/>
<path fill="#0074AF" opacity="1.000000" stroke="none" 
	d="
M729.237427,348.300598 
	C742.920288,344.884766 755.353821,338.657471 767.164673,331.201996 
	C787.979858,318.062561 804.479858,300.442291 818.672974,280.530182 
	C819.534424,279.321594 820.078186,277.886597 820.920349,276.233948 
	C824.150940,279.877502 823.925842,284.541168 820.132629,289.309845 
	C814.770447,296.050812 809.346436,302.746613 803.794739,309.331848 
	C795.791199,318.825409 787.649231,328.202362 778.898193,337.815552 
	C776.963074,338.282928 775.548096,338.292023 774.453003,338.888458 
	C766.846008,343.031677 759.506897,347.729614 751.675110,351.375977 
	C746.134094,353.955780 739.955078,355.165222 734.060852,356.986359 
	C732.484375,354.200775 730.907898,351.415161 729.237427,348.300598 
z"/>
<path fill="#007FBD" opacity="1.000000" stroke="none" 
	d="
M669.132446,336.031677 
	C668.537292,338.798920 667.942200,341.566162 666.758667,344.667908 
	C654.432739,343.591034 644.059631,338.482544 634.245056,332.407593 
	C627.126770,328.001587 620.455872,322.793762 613.955566,317.489868 
	C607.056641,311.860718 600.028931,306.207123 594.089478,299.631927 
	C587.130920,291.928528 581.285767,283.219360 574.957642,274.946472 
	C577.063538,272.967377 579.169434,270.988281 581.658875,269.309570 
	C587.023438,276.567932 591.445679,284.022858 597.101562,290.380402 
	C608.915771,303.660431 622.097534,315.538055 637.805115,324.174133 
	C647.655457,329.589874 657.669495,334.781067 669.132446,336.031677 
z"/>
<path fill="#0088C9" opacity="1.000000" stroke="none" 
	d="
M669.291443,335.657166 
	C657.669495,334.781067 647.655457,329.589874 637.805115,324.174133 
	C622.097534,315.538055 608.915771,303.660431 597.101562,290.380402 
	C591.445679,284.022858 587.023438,276.567932 581.995300,269.243286 
	C584.656189,267.824127 587.364197,266.771698 590.506714,266.080505 
	C591.416870,267.841339 591.545959,269.525909 592.424377,270.594421 
	C598.302124,277.744263 603.917480,285.181488 610.416138,291.733795 
	C622.658691,304.077301 636.757812,314.028290 652.836975,320.814301 
	C658.275635,323.109619 664.183960,324.291901 669.877686,325.982849 
	C669.735291,329.082764 669.592896,332.182709 669.291443,335.657166 
z"/>
<path fill="#0076B1" opacity="1.000000" stroke="none" 
	d="
M574.663330,275.192352 
	C581.285767,283.219360 587.130920,291.928528 594.089478,299.631927 
	C600.028931,306.207123 607.056641,311.860718 613.955566,317.489868 
	C620.455872,322.793762 627.126770,328.001587 634.245056,332.407593 
	C644.059631,338.482544 654.432739,343.591034 666.596313,345.003754 
	C665.886475,347.879639 664.750549,350.754181 662.950562,353.778870 
	C658.080994,352.558228 653.659607,351.633331 649.715149,349.723511 
	C641.551147,345.770844 633.424255,341.650146 625.682373,336.940582 
	C616.556824,331.389282 607.453308,325.668793 600.989441,316.717621 
	C599.992676,315.337311 597.722290,314.876617 596.040955,313.990631 
	C589.245056,305.739349 582.470520,297.470306 575.644470,289.244080 
	C572.042725,284.903503 572.017212,280.296448 574.663330,275.192352 
z"/>
<path fill="#0090D4" opacity="1.000000" stroke="none" 
	d="
M805.576843,265.250122 
	C803.840088,269.138763 802.159912,273.270081 799.517212,276.648499 
	C787.827393,291.592468 774.128784,304.193878 757.618958,313.945190 
	C747.822998,319.731049 737.639709,323.949951 726.423218,326.996399 
	C726.130615,324.196655 726.236206,321.397614 726.591675,318.288635 
	C739.409729,316.013611 750.283691,310.199188 760.467529,302.950897 
	C767.000000,298.301453 774.007019,294.037689 779.583923,288.397339 
	C786.691040,281.209595 792.568909,272.806335 798.976074,264.580231 
	C801.047058,264.537689 803.118713,264.841980 805.576843,265.250122 
z"/>
<path fill="#0090D5" opacity="1.000000" stroke="none" 
	d="
M669.884155,325.584045 
	C664.183960,324.291901 658.275635,323.109619 652.836975,320.814301 
	C636.757812,314.028290 622.658691,304.077301 610.416138,291.733795 
	C603.917480,285.181488 598.302124,277.744263 592.424377,270.594421 
	C591.545959,269.525909 591.416870,267.841339 590.891357,266.035553 
	C592.655945,265.106995 594.470215,264.584595 596.650330,264.097595 
	C599.936279,268.488434 602.342834,273.319885 605.863464,277.118866 
	C623.217468,295.844818 642.859802,311.249573 668.515503,317.985565 
	C669.228638,320.388245 669.559631,322.786774 669.884155,325.584045 
z"/>
<path fill="#006EA7" opacity="1.000000" stroke="none" 
	d="
M596.166504,314.298798 
	C597.722290,314.876617 599.992676,315.337311 600.989441,316.717621 
	C607.453308,325.668793 616.556824,331.389282 625.682373,336.940582 
	C633.424255,341.650146 641.551147,345.770844 649.715149,349.723511 
	C653.659607,351.633331 658.080994,352.558228 662.673340,353.980408 
	C660.913147,356.926178 658.766113,359.820587 655.940430,362.817322 
	C649.999390,361.339752 644.427002,360.379669 639.585449,357.958221 
	C636.450317,356.390198 633.830872,353.927429 630.039307,353.979370 
	C620.390381,342.740021 610.739990,331.501892 601.093872,320.260132 
	C599.483826,318.383820 597.892212,316.491760 596.166504,314.298798 
z"/>
<path fill="#006DA5" opacity="1.000000" stroke="none" 
	d="
M734.181213,357.295044 
	C739.955078,355.165222 746.134094,353.955780 751.675110,351.375977 
	C759.506897,347.729614 766.846008,343.031677 774.453003,338.888458 
	C775.548096,338.292023 776.963074,338.282928 778.625732,338.006439 
	C774.503296,343.176697 769.985229,348.342499 764.873230,353.758911 
	C760.291992,355.810059 756.326111,357.661621 752.294373,359.356445 
	C751.686340,359.612030 750.770813,359.136261 750.137085,358.945923 
	C750.184753,358.929138 750.092896,358.965179 749.697876,359.035583 
	C747.263062,361.049744 745.131348,363.029541 742.999634,365.009338 
	C740.100281,362.540833 737.200928,360.072296 734.181213,357.295044 
z"/>
<path fill="#006499" opacity="1.000000" stroke="none" 
	d="
M630.163696,354.289948 
	C633.830872,353.927429 636.450317,356.390198 639.585449,357.958221 
	C644.427002,360.379669 649.999390,361.339752 655.641479,362.966827 
	C649.606750,369.099670 643.631287,369.209015 637.687378,363.133972 
	C635.059204,360.447784 632.744873,357.454437 630.163696,354.289948 
z"/>
<path fill="#006499" opacity="1.000000" stroke="none" 
	d="
M743.228638,365.313416 
	C745.131348,363.029541 747.263062,361.049744 749.697388,359.034973 
	C750.000000,359.000000 749.997559,358.998779 749.997559,358.998779 
	C750.770813,359.136261 751.686340,359.612030 752.294373,359.356445 
	C756.326111,357.661621 760.291992,355.810059 764.673218,354.019653 
	C760.722961,359.792389 757.974976,367.633179 748.642883,366.976288 
	C746.891296,366.852997 745.184875,366.086975 743.228638,365.313416 
M749.411194,361.481873 
	C749.411194,361.481873 749.523193,361.414215 749.411194,361.481873 
M747.517334,362.409668 
	C747.517334,362.409668 747.584473,362.522034 747.517334,362.409668 
z"/>
<path fill="#006499" opacity="1.000000" stroke="none" 
	d="
M750.000488,359.000610 
	C750.092896,358.965179 750.184753,358.929138 750.137085,358.945923 
	C749.997559,358.998779 750.000000,359.000000 750.000488,359.000610 
z"/>
<path fill="#006DA5" opacity="1.000000" stroke="none" 
	d="
M749.467163,361.448059 
	C749.523193,361.414215 749.411194,361.481873 749.467163,361.448059 
z"/>
<path fill="#006DA5" opacity="1.000000" stroke="none" 
	d="
M747.550903,362.465851 
	C747.584473,362.522034 747.517334,362.409668 747.550903,362.465851 
z"/>
</svg>